<?xml version="1.0" encoding="UTF-8"?>
<svg xmlns="http://www.w3.org/2000/svg" xmlns:xlink="http://www.w3.org/1999/xlink" viewBox="0 0 24 24" width="24px" height="24px">
<g id="surface40638509">
<path style=" stroke:none;fill-rule:nonzero;fill:rgb(100%,41.176471%,0%);fill-opacity:1;" d="M 6 2 C 4.894531 2 4 2.894531 4 4 L 4 19 C 4 20.644531 5.355469 22 7 22 L 19 22 C 19.359375 22.003906 19.695312 21.816406 19.878906 21.503906 C 20.058594 21.191406 20.058594 20.808594 19.878906 20.496094 C 19.695312 20.183594 19.359375 19.996094 19 20 L 7 20 C 6.433594 20 6 19.566406 6 19 C 6 18.433594 6.433594 18 7 18 L 19 18 C 19.296875 18.003906 19.578125 17.875 19.769531 17.652344 C 19.960938 17.429688 20.046875 17.132812 20 16.839844 L 20 3 C 20 2.449219 19.550781 2 19 2 L 16 2 L 16 12 L 13 10 L 10 12 L 10 2 Z M 6 2 "/>
</g>
</svg>
